<svg xmlns="http://www.w3.org/2000/svg" width="61.075" height="90.54" viewBox="0 0 61.075 90.54">
  <g id="Group_187" data-name="Group 187" transform="translate(-463.709 -1943.9)">
    <path id="Path_634" data-name="Path 634" d="M15.069,0a15.147,15.147,0,1,0,0,30.294H30.46V0Z" transform="translate(463.861 1943.9)" fill="#f24e1e"/>
    <path id="Path_635" data-name="Path 635" d="M15.069,0A15.129,15.129,0,0,0-.152,15.035,15.129,15.129,0,0,0,15.069,30.07H30.46V0Z" transform="translate(463.861 1974.194)" fill="#a259ff"/>
    <path id="Path_636" data-name="Path 636" d="M15.163,0a15.147,15.147,0,1,1,0,30.294H-.152V0Z" transform="translate(494.474 1943.9)" fill="#ff7262"/>
    <ellipse id="Ellipse_43" data-name="Ellipse 43" cx="15.175" cy="15.064" rx="15.175" ry="15.064" transform="translate(494.379 1974.194)" fill="#1abcfe"/>
    <path id="Path_637" data-name="Path 637" d="M15.308,0H30.615V15.092A15.2,15.2,0,0,1,15.308,30.184,15.2,15.2,0,0,1,0,15.092,15.2,15.2,0,0,1,15.308,0Z" transform="translate(463.709 2004.256)" fill="#0acf83"/>
  </g>
</svg>
