<svg id="instagram" xmlns="http://www.w3.org/2000/svg" xmlns:xlink="http://www.w3.org/1999/xlink" width="41.338" height="41.339" viewBox="0 0 41.338 41.339">
  <defs>
    <radialGradient id="radial-gradient" cx="0.133" cy="1.005" r="1.305" gradientTransform="translate(0)" gradientUnits="objectBoundingBox">
      <stop offset="0.09" stop-color="#fa8f21"/>
      <stop offset="0.78" stop-color="#d82d7e"/>
    </radialGradient>
    <radialGradient id="radial-gradient-2" cx="0.606" cy="1.05" r="1.029" gradientTransform="translate(0)" gradientUnits="objectBoundingBox">
      <stop offset="0.64" stop-color="#8c3aaa" stop-opacity="0"/>
      <stop offset="1" stop-color="#8c3aaa"/>
    </radialGradient>
  </defs>
  <path id="Path_730" data-name="Path 730" d="M13.781,20.67a6.89,6.89,0,1,1,6.889,6.89,6.89,6.89,0,0,1-6.889-6.89m-3.725,0A10.614,10.614,0,1,0,20.67,10.056,10.613,10.613,0,0,0,10.056,20.67M29.223,9.635A2.48,2.48,0,1,0,31.7,7.156h0a2.482,2.482,0,0,0-2.48,2.479m-16.9,27.859a11.424,11.424,0,0,1-3.838-.711A6.424,6.424,0,0,1,6.1,35.237a6.377,6.377,0,0,1-1.546-2.376,11.413,11.413,0,0,1-.711-3.838c-.1-2.179-.12-2.833-.12-8.353s.022-6.172.12-8.353a11.5,11.5,0,0,1,.711-3.838A6.424,6.424,0,0,1,6.1,6.1,6.37,6.37,0,0,1,8.481,4.555a11.413,11.413,0,0,1,3.838-.711c2.179-.1,2.833-.12,8.351-.12s6.172.022,8.353.12a11.5,11.5,0,0,1,3.838.711A6.4,6.4,0,0,1,35.239,6.1a6.4,6.4,0,0,1,1.546,2.378,11.413,11.413,0,0,1,.711,3.838c.1,2.181.12,2.833.12,8.353s-.02,6.172-.12,8.353a11.467,11.467,0,0,1-.711,3.838,6.844,6.844,0,0,1-3.924,3.922,11.413,11.413,0,0,1-3.838.711c-2.179.1-2.833.12-8.353.12s-6.172-.02-8.351-.12M12.148.125a15.156,15.156,0,0,0-5.017.96A10.138,10.138,0,0,0,3.469,3.469,10.1,10.1,0,0,0,1.085,7.131a15.161,15.161,0,0,0-.96,5.017C.023,14.352,0,15.056,0,20.67s.023,6.318.125,8.522a15.16,15.16,0,0,0,.96,5.017A10.1,10.1,0,0,0,3.469,37.87a10.163,10.163,0,0,0,3.662,2.384,15.17,15.17,0,0,0,5.017.96c2.205.1,2.908.125,8.522.125s6.318-.023,8.522-.125a15.16,15.16,0,0,0,5.017-.96,10.568,10.568,0,0,0,6.046-6.046,15.119,15.119,0,0,0,.96-5.017c.1-2.206.124-2.908.124-8.522s-.023-6.318-.124-8.522a15.155,15.155,0,0,0-.96-5.017A10.165,10.165,0,0,0,37.87,3.469a10.114,10.114,0,0,0-3.66-2.384,15.136,15.136,0,0,0-5.017-.96C26.989.025,26.285,0,20.671,0s-6.318.023-8.523.125" transform="translate(0 0)" fill="url(#radial-gradient)"/>
  <path id="Path_731" data-name="Path 731" d="M13.781,20.67a6.89,6.89,0,1,1,6.889,6.89,6.89,6.89,0,0,1-6.889-6.89m-3.725,0A10.614,10.614,0,1,0,20.67,10.056,10.613,10.613,0,0,0,10.056,20.67M29.223,9.635A2.48,2.48,0,1,0,31.7,7.156h0a2.482,2.482,0,0,0-2.48,2.479m-16.9,27.859a11.424,11.424,0,0,1-3.838-.711A6.424,6.424,0,0,1,6.1,35.237a6.377,6.377,0,0,1-1.546-2.376,11.413,11.413,0,0,1-.711-3.838c-.1-2.179-.12-2.833-.12-8.353s.022-6.172.12-8.353a11.5,11.5,0,0,1,.711-3.838A6.424,6.424,0,0,1,6.1,6.1,6.37,6.37,0,0,1,8.481,4.555a11.413,11.413,0,0,1,3.838-.711c2.179-.1,2.833-.12,8.351-.12s6.172.022,8.353.12a11.5,11.5,0,0,1,3.838.711A6.4,6.4,0,0,1,35.239,6.1a6.4,6.4,0,0,1,1.546,2.378,11.413,11.413,0,0,1,.711,3.838c.1,2.181.12,2.833.12,8.353s-.02,6.172-.12,8.353a11.467,11.467,0,0,1-.711,3.838,6.844,6.844,0,0,1-3.924,3.922,11.413,11.413,0,0,1-3.838.711c-2.179.1-2.833.12-8.353.12s-6.172-.02-8.351-.12M12.148.125a15.156,15.156,0,0,0-5.017.96A10.138,10.138,0,0,0,3.469,3.469,10.1,10.1,0,0,0,1.085,7.131a15.161,15.161,0,0,0-.96,5.017C.023,14.352,0,15.056,0,20.67s.023,6.318.125,8.522a15.16,15.16,0,0,0,.96,5.017A10.1,10.1,0,0,0,3.469,37.87a10.163,10.163,0,0,0,3.662,2.384,15.17,15.17,0,0,0,5.017.96c2.205.1,2.908.125,8.522.125s6.318-.023,8.522-.125a15.16,15.16,0,0,0,5.017-.96,10.568,10.568,0,0,0,6.046-6.046,15.119,15.119,0,0,0,.96-5.017c.1-2.206.124-2.908.124-8.522s-.023-6.318-.124-8.522a15.155,15.155,0,0,0-.96-5.017A10.165,10.165,0,0,0,37.87,3.469a10.114,10.114,0,0,0-3.66-2.384,15.136,15.136,0,0,0-5.017-.96C26.989.025,26.285,0,20.671,0s-6.318.023-8.523.125" transform="translate(0 0)" fill="url(#radial-gradient-2)"/>
</svg>
